<svg width="50" height="58" viewBox="0 0 50 58" fill="none" xmlns="http://www.w3.org/2000/svg">
<path d="M7.14286 3.57153C3.20312 3.57153 0 6.77466 0 10.7144V46.4287C0 50.3684 3.20312 53.5715 7.14286 53.5715H18.1027V37.2992H12.2098V28.5715H18.1027V24.8104C18.1027 15.0894 22.5 10.5805 32.0536 10.5805C33.8616 10.5805 36.9866 10.9376 38.2701 11.2947V19.1965C37.6004 19.1296 36.4286 19.0849 34.9665 19.0849C30.279 19.0849 28.471 20.8595 28.471 25.4689V28.5715H37.8013L36.1942 37.2992H28.4598V53.5715H42.8571C46.7969 53.5715 50 50.3684 50 46.4287V10.7144C50 6.77466 46.7969 3.57153 42.8571 3.57153H7.14286Z" fill="#FFBE00"/>
</svg>
