<svg width="50" height="58" viewBox="0 0 50 58" fill="none" xmlns="http://www.w3.org/2000/svg">
<g clip-path="url(#clip0_27_178)">
<path d="M25.0112 15.7367C17.913 15.7367 12.1875 21.4622 12.1875 28.5604C12.1875 35.6586 17.913 41.384 25.0112 41.384C32.1094 41.384 37.8348 35.6586 37.8348 28.5604C37.8348 21.4622 32.1094 15.7367 25.0112 15.7367ZM25.0112 36.8974C20.4241 36.8974 16.6741 33.1586 16.6741 28.5604C16.6741 23.9622 20.413 20.2233 25.0112 20.2233C29.6094 20.2233 33.3482 23.9622 33.3482 28.5604C33.3482 33.1586 29.5982 36.8974 25.0112 36.8974ZM41.3505 15.2122C41.3505 16.8751 40.0112 18.2032 38.3594 18.2032C36.6964 18.2032 35.3683 16.8639 35.3683 15.2122C35.3683 13.5604 36.7076 12.2211 38.3594 12.2211C40.0112 12.2211 41.3505 13.5604 41.3505 15.2122ZM49.8438 18.2479C49.654 14.2412 48.7388 10.6921 45.8036 7.76796C42.8795 4.84385 39.3304 3.92868 35.3237 3.72778C31.1942 3.49341 18.817 3.49341 14.6875 3.72778C10.692 3.91752 7.14287 4.83269 4.2076 7.7568C1.27233 10.6809 0.368312 14.23 0.167419 18.2367C-0.0669556 22.3662 -0.0669556 34.7434 0.167419 38.8729C0.357152 42.8796 1.27233 46.4287 4.2076 49.3528C7.14287 52.2769 10.6808 53.1921 14.6875 53.393C18.817 53.6273 31.1942 53.6273 35.3237 53.393C39.3304 53.2032 42.8795 52.2881 45.8036 49.3528C48.7277 46.4287 49.6429 42.8796 49.8438 38.8729C50.0781 34.7434 50.0781 22.3773 49.8438 18.2479ZM44.5089 43.3037C43.6384 45.4912 41.9531 47.1764 39.7545 48.0581C36.4621 49.3639 28.6496 49.0626 25.0112 49.0626C21.3728 49.0626 13.5491 49.3528 10.2679 48.0581C8.08037 47.1876 6.3951 45.5023 5.5134 43.3037C4.2076 40.0113 4.50894 32.1988 4.50894 28.5604C4.50894 24.922 4.21876 17.0983 5.5134 13.8171C6.38394 11.6296 8.0692 9.9443 10.2679 9.0626C13.5603 7.7568 21.3728 8.05814 25.0112 8.05814C28.6496 8.05814 36.4732 7.76796 39.7545 9.0626C41.942 9.93314 43.6272 11.6184 44.5089 13.8171C45.8147 17.1095 45.5134 24.922 45.5134 28.5604C45.5134 32.1988 45.8147 40.0224 44.5089 43.3037Z" fill="#FFBE00"/>
</g>
<defs>
<clipPath id="clip0_27_178">
<rect width="50" height="57.1429" fill="white"/>
</clipPath>
</defs>
</svg>
