<svg width="50" height="58" viewBox="0 0 50 58" fill="none" xmlns="http://www.w3.org/2000/svg">
<path d="M3.51562 7.0988C0 10.6202 0 16.288 0 27.6124V29.6246C0 40.949 0 46.6168 3.51562 50.1382C7.03125 53.6596 12.6897 53.6596 23.9955 53.6596H26.0045C37.3103 53.6596 42.9688 53.6596 46.4844 50.1382C50 46.6168 50 40.949 50 29.6246V27.6124C50 16.288 50 10.6202 46.4844 7.0988C42.9688 3.57739 37.3103 3.57739 26.0045 3.57739H23.9955C12.6897 3.57739 7.03125 3.57739 3.51562 7.0988ZM8.4375 18.8145H14.1406C14.3304 28.3726 18.5379 32.4194 21.875 33.2466V18.8145H27.2545V27.0534C30.5469 26.6957 33.9955 22.9395 35.1674 18.8145H40.5469C40.1004 20.9497 39.2299 22.9843 37.9688 24.7729C36.7076 26.5616 35.1004 28.0707 33.2254 29.1998C35.3125 30.2395 37.154 31.7039 38.6272 33.5149C40.1116 35.3148 41.183 37.4053 41.7969 39.6523H35.8705C35.3348 37.7071 34.2188 35.952 32.6897 34.6328C31.1496 33.3025 29.2634 32.4641 27.2545 32.207V39.6523H26.6071C15.2121 39.6523 8.70536 31.8269 8.4375 18.8145Z" fill="#FFBE00"/>
</svg>
